# xmcd
#
# Track frame offsets:
#	150
#	8913
#	19057
#	30343
#	41841
#	51509
#	63445
#	74368
#	84946
#	95546
#	109370
#	118788
#	129403
#	139944
#	151487
#	161379
#	170788
#	180184
#	190287
#	201930
#	211393
#	221770
#	232710
#	243162
#	257200
#	269727
#	280094
#	288382
#	298689
#	308859
#
# Disc length: 4257 seconds
# Revision: 1
# Processed by: cddbd v1.5.2PL0 Copyright (c) Steve Scherf et al.
# Submitted via: dBpowerAMP V12.0
#
DISCID=c2109f1e
DTITLE=Mel Tillis - Honky Tonk Song
DYEAR=2012
DGENRE=Country
TTITLE0=I Ain't Never
TTITLE1=Ten Thousand Drums
TTITLE2=No Love Have I
TTITLE3=I'm Tired
TTITLE4=Tupelo County Jail
TTITLE5=Heart Over Mind
TTITLE6=Mary Don't You Weep
TTITLE7=Holiday For Love
TTITLE8=A Thousand Miles Ago
TTITLE9=Emotions
TTITLE10=Shanghied
TTITLE11=It Takes A Worried Man
TTITLE12=Honky Tonk Song
TTITLE13=A Case Of Blues
TTITLE14=It's My Life
TTITLE15=Juke Box Man
TTITLE16=Teenage Wedding
TTITLE17=Lonely Street
TTITLE18=The Violet And The Rose
TTITLE19=No Song To Sing
TTITLE20=Finally
TTITLE21=Brooklyn Bridge
TTITLE22=If You'll Be My Love
TTITLE23=Loco Weed
TTITLE24=Walk On Boy
TTITLE25=Hearts Of Stone
TTITLE26=If I Lost Your Love
TTITLE27=You Are The Reason
TTITLE28=Georgia Town Blues
TTITLE29=Till I Get Enough Of The Blues
EXTD=
EXTT0=
EXTT1=
EXTT2=
EXTT3=
EXTT4=
EXTT5=
EXTT6=
EXTT7=
EXTT8=
EXTT9=
EXTT10=
EXTT11=
EXTT12=
EXTT13=
EXTT14=
EXTT15=
EXTT16=
EXTT17=
EXTT18=
EXTT19=
EXTT20=
EXTT21=
EXTT22=
EXTT23=
EXTT24=
EXTT25=
EXTT26=
EXTT27=
EXTT28=
EXTT29=
PLAYORDER=
